<?xml version="1.0" encoding="iso-8859-1"?>
<!-- Uploaded to: SVG Repo, www.svgrepo.com, Generator: SVG Repo Mixer Tools -->
<svg fill="#000000" version="1.1" id="Layer_1" xmlns="http://www.w3.org/2000/svg" xmlns:xlink="http://www.w3.org/1999/xlink" 
	 viewBox="0 0 496 496" xml:space="preserve">
<g>
	<g>
		<g>
			<path d="M338.056,240h1.352c2.112,0,4.184,0.368,6.168,1.088l81.024,29.456L451.472,312H496v-16h-35.472l-23.136-38.544
				L367.408,232H368v-72h-96v-24h16v-16h-16V16h16V0H0v16h16v104H0v16h16v112H0v16h16v104H0v16h160v112h208v-64h75.312l24-24H496
				v-16h-35.312l-24,24H368V299.72l-39.96-26.64c-5.04-3.352-8.04-8.968-8.04-15.024C320,248.096,328.096,240,338.056,240z M32,16
				h224v104h-64.368c-0.832-8.304-3.664-16.216-8.568-23.08L144,42.24l-39.064,54.68c-4.904,6.864-7.736,14.776-8.568,23.08H32V16z
				 M256,136v24h-76.32c5.936-6.616,10.056-14.864,11.6-24H256z M160,368H32V264h128V368z M160,248H32V136h64.72
				c3.824,22.664,23.536,40,47.28,40c5.616,0,10.984-1.024,16-2.8V248z M144,160c-17.648,0-32-14.352-32-32v-3.176
				c0-6.712,2.064-13.144,5.96-18.6L144,69.76l26.04,36.456c3.896,5.464,5.96,11.896,5.96,18.608V128
				C176,145.648,161.648,160,144,160z M304,258.056c0,4.04,0.744,7.96,2.08,11.648C294.232,261.12,279.72,256,264,256
				c-39.696,0-72,32.296-72,72c0,39.704,32.304,72,72,72s72-32.296,72-72c0-13.736-3.936-26.544-10.64-37.48L352,308.28V480H176V176
				h176v50.4l-0.952-0.344c-3.736-1.368-7.656-2.056-11.64-2.056h-1.352C319.28,224,304,239.28,304,258.056z M320,328
				c0,30.872-25.12,56-56,56s-56-25.128-56-56s25.12-56,56-56S320,297.128,320,328z"/>
			<rect x="192" y="192" width="16" height="16"/>
			<rect x="320" y="192" width="16" height="16"/>
			<rect x="320" y="448" width="16" height="16"/>
			<rect x="192" y="448" width="16" height="16"/>
			<path d="M256,304h16c4.408,0,8,3.584,8,8h16c0-13.232-10.768-24-24-24v-8h-16v8c-13.232,0-24,10.768-24,24s10.768,24,24,24h16
				c4.408,0,8,3.584,8,8c0,4.416-3.592,8-8,8h-16c-4.408,0-8-3.584-8-8h-16c0,13.232,10.768,24,24,24v8h16v-8
				c13.232,0,24-10.768,24-24s-10.768-24-24-24h-16c-4.408,0-8-3.584-8-8C248,307.584,251.592,304,256,304z"/>
		</g>
	</g>
</g>
</svg>