<?xml version="1.0" encoding="iso-8859-1"?>
<!-- Uploaded to: SVG Repo, www.svgrepo.com, Generator: SVG Repo Mixer Tools -->
<svg version="1.1" id="Layer_1" xmlns="http://www.w3.org/2000/svg" xmlns:xlink="http://www.w3.org/1999/xlink" 
	 viewBox="0 0 511.996 511.996" xml:space="preserve">
<path style="fill:#52C6EB;" d="M261.882,263.672H142.504c-27.588,0-50.035,22.446-50.035,50.035v36.98v8.101v40.535H55.383h-34.32
	c-7.158,0-12.962,5.803-12.962,12.962v38.885c0,7.159,5.804,12.963,12.962,12.963h34.32h51.861
	c27.588,0,50.033-22.446,50.033-50.035v-55.31v-8.101v-22.207h190.83v28.688v56.93c0,27.59,22.445,50.035,50.035,50.035h68.783
	h24.011c7.158,0,12.962-5.804,12.962-12.963v-38.885c0-7.159-5.804-12.962-12.962-12.962h-24.011h-54.008v-42.156v-29.163v-14.298
	c0-27.59-22.447-50.035-50.035-50.035h-73.628"/>
<g>
	<path style="fill:#8BD8F7;" d="M412.918,357.17v-29.163v-14.298c0-10.819-3.464-20.837-9.323-29.032l-55.487,43.806v28.688v56.93
		c0,13.706,5.542,26.138,14.5,35.184l50.31-49.959V357.17z"/>
	<polyline style="fill:#8BD8F7;" points="308.796,263.672 308.796,207.22 281.75,207.22 230.767,207.22 203.204,207.22 
		203.204,263.672 	"/>
</g>
<rect x="210.88" y="192.429" style="fill:#57BEDD;" width="21.973" height="92.656"/>
<rect x="204.875" y="124.325" style="fill:#CCC3A8;" width="102.259" height="23.828"/>
<path style="fill:#C9B585;" d="M234.517,135.604V108.97c0-7.159,5.803-12.962,12.962-12.962h-21.973
	c-7.159,0-12.962,5.803-12.962,12.962v26.634c0,7.158,5.803,12.962,12.962,12.962h21.973
	C240.319,148.566,234.517,142.762,234.517,135.604z"/>
<path style="fill:#E35F46;" d="M348.108,111.36c0,7.158-5.804,12.962-12.962,12.962h-155.21c-7.158,0-12.962-5.804-12.962-12.962
	V60.822c0-7.158,5.804-12.962,12.962-12.962h155.21c7.158,0,12.962,5.804,12.962,12.962V111.36z"/>
<path style="fill:#D8422E;" d="M196.069,111.772V61.235c0-7.158,5.804-12.962,12.962-12.962h-21.423
	c-7.158,0-12.962,5.804-12.962,12.962v50.538c0,7.158,5.804,12.962,12.962,12.962h21.423
	C201.873,124.734,196.069,118.93,196.069,111.772z"/>
<rect x="240.801" y="148.153" style="fill:#ADABA6;" width="30.407" height="28.664"/>
<path style="fill:#36A1CB;" d="M325.419,193.682v-3.327c0-7.477-6.061-13.538-13.538-13.538h-30.388H230.51h-30.388
	c-7.477,0-13.538,6.061-13.538,13.538v3.327c0,7.477,6.061,13.538,13.538,13.538h30.388h50.983h30.388
	C319.357,207.22,325.419,201.158,325.419,193.682z"/>
<path style="fill:#8BD8F7;" d="M92.47,357.17v-29.163v-14.298c0-10.819,3.462-20.837,9.321-29.032l55.489,43.806v28.688v56.93
	c0,13.706-5.544,26.138-14.502,35.184L92.47,399.327C92.47,399.327,92.47,357.17,92.47,357.17z"/>
<path style="fill:#2393B5;" d="M216.228,194.095v-3.327c0-7.477,6.061-13.538,13.538-13.538h-21.973
	c-7.477,0-13.538,6.061-13.538,13.538v3.327c0,7.477,6.061,13.538,13.538,13.538h21.973
	C222.289,207.634,216.228,201.572,216.228,194.095z"/>
<g>
	<path style="fill:#45ACC4;" d="M123.193,379.731v-20.526v-8.101v-36.98c0-27.59,22.447-50.035,50.035-50.035h-21.973
		c-27.588,0-50.035,22.446-50.035,50.035v36.98v8.101v40.535h0.295C104.092,399.714,123.193,398.87,123.193,379.731z"/>
	<path style="fill:#45ACC4;" d="M378.833,414.514v-56.93v-8.817c0-17.172-13.875-19.597-19.57-19.871h-2.402v28.688v56.93
		c0,27.59,22.445,50.035,50.035,50.035h21.973C401.278,464.55,378.833,442.104,378.833,414.514z"/>
	<path style="fill:#45ACC4;" d="M37.745,451.586v-38.885c0-7.159,5.804-12.962,12.962-12.962H28.736
		c-7.158,0-12.962,5.803-12.962,12.962v38.885c0,7.159,5.804,12.963,12.962,12.963h21.973
		C43.549,464.55,37.745,458.746,37.745,451.586z"/>
</g>
<g>
	<path style="fill:#57BEDD;" d="M123.193,379.731v-20.526v-8.101v-36.98c0-5.876,1.026-11.516,2.896-16.759l-15.546-12.273l0,0
		c-1.444,2.021-2.741,4.153-3.879,6.379c-0.027,0.052-0.053,0.103-0.079,0.154c-0.262,0.518-0.517,1.045-0.763,1.574
		c-0.037,0.08-0.072,0.161-0.11,0.243c-0.706,1.548-1.334,3.14-1.883,4.768c-0.06,0.179-0.123,0.356-0.183,0.536
		c-0.141,0.435-0.272,0.876-0.402,1.317c-0.079,0.272-0.158,0.547-0.233,0.821c-0.113,0.41-0.224,0.823-0.327,1.238
		c-0.082,0.333-0.157,0.668-0.232,1.002c-0.094,0.418-0.19,0.834-0.272,1.255c-0.124,0.625-0.239,1.255-0.339,1.889
		c-0.051,0.325-0.092,0.651-0.137,0.979c-0.059,0.432-0.118,0.867-0.166,1.304c-0.036,0.333-0.07,0.665-0.099,1
		c-0.042,0.455-0.076,0.912-0.106,1.37c-0.019,0.31-0.041,0.619-0.055,0.93c-0.028,0.624-0.043,1.253-0.049,1.883
		c0,0.131-0.008,0.259-0.008,0.39v14.298v29.163v42.156h0.293C104.092,399.714,123.193,398.87,123.193,379.731z"/>
	<path style="fill:#57BEDD;" d="M357.005,416.169c0.035,0.514,0.064,1.03,0.112,1.539c0.046,0.474,0.113,0.941,0.172,1.412
		c0.049,0.387,0.086,0.779,0.144,1.163c0.078,0.531,0.179,1.054,0.272,1.579c0.057,0.319,0.104,0.639,0.165,0.956
		c0.116,0.58,0.251,1.15,0.383,1.724c0.059,0.253,0.108,0.511,0.171,0.764c0.154,0.623,0.331,1.239,0.507,1.855
		c0.057,0.194,0.104,0.391,0.161,0.585c0.198,0.657,0.415,1.305,0.635,1.95c0.05,0.146,0.093,0.293,0.145,0.439
		c0.239,0.682,0.498,1.351,0.765,2.018c0.041,0.106,0.078,0.212,0.121,0.316c0.284,0.698,0.587,1.387,0.899,2.07
		c0.031,0.068,0.059,0.138,0.091,0.206c0.329,0.711,0.675,1.411,1.035,2.102c0.021,0.039,0.037,0.078,0.058,0.116
		c0.374,0.716,0.761,1.419,1.167,2.114c0.009,0.014,0.015,0.027,0.023,0.04c0.412,0.706,0.839,1.402,1.283,2.087
		c0.002,0.001,0.002,0.003,0.002,0.003c1.773,2.731,3.787,5.279,6.014,7.61c0.011,0.011,0.019,0.023,0.03,0.034l12.816-13.168
		c-3.41-6.994-5.344-14.884-5.344-23.236v-58.906v-9.122c0-17.769-13.875-20.277-19.57-20.56h-2.402v29.682v58.906
		c0,0.888,0.023,1.773,0.065,2.65C356.944,415.454,356.979,415.81,357.005,416.169z"/>
</g>
<path style="fill:#231F20;" d="M490.937,391.225h-69.918v-77.517c0-0.904-0.027-1.804-0.068-2.703
	c-0.012-0.265-0.03-0.528-0.045-0.792c-0.039-0.657-0.089-1.311-0.15-1.964c-0.025-0.268-0.049-0.535-0.078-0.802
	c-0.083-0.778-0.181-1.553-0.296-2.324c-0.015-0.104-0.027-0.208-0.042-0.312c-0.136-0.881-0.295-1.756-0.471-2.628
	c-0.042-0.212-0.092-0.42-0.136-0.631c-0.14-0.656-0.291-1.309-0.454-1.959c-0.066-0.264-0.134-0.527-0.203-0.789
	c-0.166-0.626-0.345-1.25-0.533-1.87c-0.069-0.229-0.134-0.459-0.206-0.687c-0.256-0.811-0.527-1.618-0.82-2.417
	c-0.078-0.212-0.164-0.42-0.244-0.631c-0.218-0.575-0.442-1.148-0.678-1.716c-0.15-0.363-0.309-0.72-0.467-1.08
	c-0.175-0.399-0.354-0.795-0.539-1.189c-0.192-0.413-0.388-0.822-0.589-1.229c-0.149-0.299-0.304-0.596-0.458-0.893
	c-0.913-1.764-1.91-3.475-2.992-5.129c-0.032-0.049-0.063-0.098-0.095-0.148c-0.363-0.551-0.738-1.092-1.118-1.629
	c-0.052-0.073-0.1-0.149-0.152-0.221c-0.017-0.024-0.037-0.044-0.054-0.068c-10.559-14.714-27.797-24.326-47.249-24.326h-45.985
	v-40.862c9.516-2.272,16.623-10.826,16.623-21.029v-3.327c0-11.932-9.707-21.639-21.639-21.639h-32.578v-12.462h27.825
	c4.475,0,8.101-3.626,8.101-8.101v-15.73h19.917c11.614,0,21.063-9.449,21.063-21.063V60.822c0-11.614-9.449-21.063-21.063-21.063
	H179.936c-11.614,0-21.063,9.449-21.063,21.063v50.538c0,11.614,9.449,21.063,21.063,21.063h16.835v15.73
	c0,4.475,3.626,8.101,8.101,8.101h27.825v12.462h-32.576c-11.932,0-21.639,9.707-21.639,21.639v3.327
	c0,10.201,7.105,18.755,16.62,21.028v40.863h-52.599c-19.452,0-36.69,9.612-47.249,24.326c-0.017,0.024-0.037,0.044-0.054,0.068
	c-0.053,0.073-0.1,0.149-0.153,0.223c-0.38,0.536-0.754,1.076-1.116,1.626c-0.036,0.053-0.068,0.108-0.104,0.161
	c-1.081,1.653-2.078,3.364-2.99,5.126c-0.151,0.292-0.304,0.583-0.45,0.877c-0.204,0.413-0.402,0.828-0.597,1.245
	c-0.18,0.386-0.354,0.773-0.526,1.162c-0.162,0.368-0.325,0.737-0.48,1.109c-0.225,0.54-0.436,1.084-0.644,1.631
	c-0.091,0.24-0.19,0.476-0.278,0.718c-0.287,0.787-0.554,1.581-0.807,2.38c-0.081,0.258-0.156,0.518-0.233,0.778
	c-0.176,0.584-0.343,1.171-0.501,1.761c-0.078,0.292-0.153,0.584-0.226,0.878c-0.15,0.604-0.289,1.21-0.42,1.819
	c-0.055,0.255-0.115,0.509-0.165,0.765c-0.17,0.846-0.324,1.695-0.457,2.549c-0.028,0.181-0.048,0.365-0.075,0.547
	c-0.099,0.687-0.189,1.375-0.264,2.067c-0.035,0.318-0.063,0.636-0.092,0.955c-0.054,0.587-0.098,1.174-0.135,1.763
	c-0.019,0.321-0.041,0.641-0.056,0.961c-0.035,0.767-0.054,1.536-0.058,2.307c0,0.111-0.009,0.221-0.009,0.333v77.517H21.063
	C9.449,391.225,0,400.674,0,412.288v38.885c0,11.615,9.449,21.064,21.063,21.064h86.181c16.108,0,30.704-6.589,41.243-17.209
	c0.015-0.015,0.032-0.028,0.048-0.043c0.197-0.199,0.379-0.406,0.572-0.607c0.434-0.45,0.868-0.9,1.288-1.364
	c0.311-0.343,0.606-0.698,0.908-1.048c0.299-0.347,0.603-0.69,0.893-1.045c0.414-0.503,0.809-1.017,1.204-1.533
	c0.159-0.207,0.324-0.41,0.481-0.62c0.494-0.66,0.967-1.332,1.429-2.009c0.049-0.071,0.1-0.142,0.149-0.213
	c4.254-6.285,7.211-13.303,8.73-20.718c0.002-0.011,0.005-0.022,0.008-0.032c0.183-0.893,0.342-1.792,0.483-2.695
	c0.01-0.062,0.023-0.122,0.031-0.184c0.134-0.879,0.244-1.765,0.338-2.653c0.01-0.085,0.023-0.169,0.031-0.254
	c0.096-0.956,0.171-1.916,0.219-2.881c0.001-0.015,0.002-0.03,0.003-0.045c0.05-0.991,0.078-1.985,0.078-2.984v-77.517h174.626
	V414.1c0,0.984,0.026,1.965,0.075,2.942c0.012,0.244,0.038,0.484,0.053,0.726c0.045,0.736,0.095,1.47,0.167,2.199
	c0.023,0.228,0.057,0.453,0.083,0.679c0.083,0.745,0.172,1.491,0.284,2.229c0.025,0.164,0.058,0.325,0.084,0.488
	c0.129,0.803,0.268,1.602,0.429,2.396c0.017,0.085,0.039,0.168,0.056,0.254c0.181,0.868,0.379,1.733,0.599,2.59
	c0.003,0.011,0.007,0.022,0.009,0.032c1.643,6.381,4.367,12.424,8.08,17.91c0.045,0.068,0.094,0.133,0.139,0.2
	c0.467,0.684,0.944,1.36,1.442,2.025c0.147,0.198,0.304,0.389,0.453,0.584c0.405,0.527,0.81,1.054,1.234,1.569
	c0.275,0.336,0.565,0.661,0.848,0.991c0.316,0.368,0.629,0.741,0.955,1.103c0.396,0.439,0.808,0.864,1.217,1.291
	c0.214,0.223,0.418,0.454,0.635,0.674c0.017,0.017,0.036,0.031,0.053,0.049c10.539,10.617,25.133,17.204,41.238,17.204h92.793
	c11.614,0,21.063-9.449,21.063-21.064v-38.885C512,400.674,502.551,391.225,490.937,391.225z M363.213,437.268
	c-0.069-0.104-0.134-0.211-0.202-0.315c-0.4-0.61-0.78-1.232-1.146-1.861c-0.142-0.243-0.284-0.485-0.421-0.731
	c-0.401-0.72-0.781-1.452-1.137-2.193c-0.127-0.266-0.243-0.537-0.365-0.806c-0.248-0.547-0.485-1.099-0.709-1.655
	c-0.124-0.308-0.25-0.615-0.366-0.927c-0.286-0.764-0.554-1.534-0.795-2.313c-0.079-0.256-0.146-0.517-0.22-0.776
	c-0.179-0.623-0.346-1.25-0.495-1.883c-0.068-0.285-0.136-0.57-0.199-0.858c-0.183-0.847-0.346-1.699-0.475-2.559
	c-0.024-0.158-0.039-0.318-0.06-0.476c-0.106-0.762-0.19-1.527-0.254-2.298c-0.022-0.251-0.041-0.502-0.057-0.754
	c-0.059-0.917-0.102-1.838-0.102-2.765v-81.692l45.053-35.569c0.011,0.025,0.023,0.049,0.034,0.073
	c0.241,0.548,0.467,1.102,0.684,1.658c0.049,0.125,0.1,0.248,0.148,0.374c0.191,0.507,0.367,1.017,0.539,1.531
	c0.057,0.174,0.12,0.345,0.176,0.518c0.151,0.473,0.286,0.951,0.42,1.428c0.059,0.213,0.125,0.423,0.181,0.638
	c0.118,0.446,0.219,0.897,0.322,1.347c0.056,0.247,0.12,0.491,0.171,0.74c0.091,0.435,0.164,0.874,0.241,1.311
	c0.046,0.265,0.1,0.527,0.143,0.794c0.068,0.443,0.12,0.89,0.174,1.335c0.032,0.265,0.073,0.527,0.102,0.794
	c0.051,0.49,0.082,0.985,0.114,1.479c0.015,0.225,0.04,0.446,0.052,0.672c0.037,0.723,0.056,1.447,0.056,2.174v82.246
	L363.213,437.268z M205.241,55.961h14.032c-0.009,0.157-0.024,0.312-0.024,0.472v59.788h-13.985V56.432
	C205.265,56.273,205.251,56.118,205.241,55.961z M235.429,55.961h14.035c-0.009,0.157-0.024,0.312-0.024,0.472v59.788h-13.987
	V56.432C235.453,56.273,235.438,56.118,235.429,55.961z M265.619,55.961h14.035c-0.009,0.157-0.024,0.312-0.024,0.472v59.788
	h-13.987V56.432C265.643,56.273,265.628,56.118,265.619,55.961z M295.808,55.961h14.032c-0.009,0.157-0.024,0.312-0.024,0.472
	v59.788h-2.69h-11.295V56.432C295.832,56.273,295.817,56.118,295.808,55.961z M340.007,60.822v50.538
	c0,2.68-2.181,4.861-4.861,4.861h-9.126V56.432c0-0.159-0.015-0.314-0.024-0.472h9.15C337.827,55.961,340.007,58.141,340.007,60.822
	z M175.075,111.36V60.822c0-2.68,2.181-4.861,4.861-4.861h9.15c-0.009,0.157-0.024,0.312-0.024,0.472v59.788h-9.126
	C177.256,116.22,175.075,114.039,175.075,111.36z M212.974,132.423h86.052v7.629h-27.825h-30.402h-27.825V132.423z M248.9,156.253
	h14.2v12.462h-14.2V156.253z M194.684,190.354c0-2.997,2.439-5.436,5.436-5.436h40.677H271.2h40.679
	c2.997,0,5.436,2.439,5.436,5.436v3.327c0,2.997-2.439,5.436-5.436,5.436h-3.084H203.203h-3.083c-2.997,0-5.436-2.439-5.436-5.436
	v-3.327H194.684z M149.176,414.1c0,0.06-0.004,0.121-0.004,0.181c-0.003,0.848-0.039,1.692-0.093,2.532
	c-0.018,0.289-0.041,0.577-0.066,0.865c-0.06,0.712-0.139,1.42-0.234,2.125c-0.028,0.206-0.048,0.416-0.079,0.622
	c-0.126,0.835-0.285,1.663-0.461,2.485c-0.069,0.321-0.145,0.638-0.221,0.956c-0.14,0.587-0.295,1.168-0.46,1.747
	c-0.084,0.294-0.161,0.59-0.251,0.881c-0.235,0.762-0.498,1.514-0.777,2.26c-0.124,0.332-0.258,0.66-0.39,0.988
	c-0.214,0.531-0.441,1.057-0.677,1.58c-0.13,0.286-0.253,0.575-0.388,0.858c-0.353,0.735-0.73,1.458-1.127,2.173
	c-0.139,0.251-0.285,0.497-0.429,0.745c-0.366,0.629-0.746,1.251-1.146,1.861c-0.067,0.103-0.13,0.206-0.198,0.308l-41.605-41.315
	v-82.246c0-1.467,0.076-2.924,0.226-4.367c0.002-0.026,0.008-0.052,0.01-0.078c0.072-0.687,0.161-1.371,0.268-2.05
	c0.018-0.118,0.043-0.233,0.063-0.351c0.097-0.587,0.201-1.171,0.322-1.752c0.032-0.154,0.072-0.306,0.106-0.459
	c0.12-0.543,0.245-1.086,0.387-1.623c0.041-0.153,0.089-0.305,0.131-0.458c0.148-0.537,0.301-1.072,0.472-1.602
	c0.043-0.136,0.093-0.27,0.138-0.406c0.181-0.549,0.37-1.094,0.576-1.635c0.039-0.105,0.082-0.207,0.123-0.311
	c0.224-0.576,0.456-1.147,0.705-1.713c0.01-0.021,0.019-0.041,0.028-0.063l45.053,35.567V414.1H149.176z M21.063,456.035
	c-2.68,0-4.861-2.182-4.861-4.862v-38.885c0-2.68,2.181-4.861,4.861-4.861h68.068l41.649,41.359
	c-6.715,4.571-14.818,7.248-23.536,7.248H21.063z M160.092,320.381l-46.67-36.843c7.546-7.276,17.796-11.764,29.08-11.764h119.379
	c4.475,0,8.101-3.626,8.101-8.101s-3.626-8.101-8.101-8.101h-50.577V215.32h89.39v40.251h-11.441c-4.475,0-8.101,3.626-8.101,8.101
	s3.626,8.101,8.101,8.101h73.628c11.284,0,21.535,4.489,29.08,11.765l-46.667,36.842H160.092z M495.798,451.173
	c0,2.68-2.181,4.862-4.861,4.862h-92.793c-8.718,0-16.821-2.677-23.537-7.248l41.65-41.359h74.678c2.68,0,4.861,2.181,4.861,4.861
	v38.885H495.798z"/>
</svg>